PathFileType	4	(X/Y/Z)	Patient4_TMGait_0pt5_01_right_31.trc.trc
DataRate	CameraRate	NumFrames	NumMarkers	Units	OrigDataRate	OrigDataStartFrame	OrigNumFrames
75.675675675676	75.675675675676	4	33	mm	75.675675675676	18	       141
Frame#	Time	L.ASIS			Sacral			L.Shoulder			Chest			R.Shoulder			Neck			R.ASIS			R.Thigh.Superior			R.Thigh.Lateral			R.Thigh.Inferior			R.Patella			L.Thigh.Superior			L.Thigh.Lateral			L.Thigh.Inferior			L.Patella			L.Shank.Superior			L.Shank.Lateral			L.Shank.Inferior			R.Shank.Superior			R.Shank.Lateral			R.Shank.Inferior			R.Heel			R.Midfoot.Superior			R.Midfoot.Lateral			R.Toe			L.Heel			L.Midfoot.Lateral			L.Midfoot.Superior			L.Toe			L.Elbow			L.Wrist			R.Elbow			R.Wrist			
		X1	Y1	Z1	X2	Y2	Z2	X3	Y3	Z3	X4	Y4	Z4	X5	Y5	Z5	X6	Y6	Z6	X7	Y7	Z7	X8	Y8	Z8	X9	Y9	Z9	X10	Y10	Z10	X11	Y11	Z11	X12	Y12	Z12	X13	Y13	Z13	X14	Y14	Z14	X15	Y15	Z15	X16	Y16	Z16	X17	Y17	Z17	X18	Y18	Z18	X19	Y19	Z19	X20	Y20	Z20	X21	Y21	Z21	X22	Y22	Z22	X23	Y23	Z23	X24	Y24	Z24	X25	Y25	Z25	X26	Y26	Z26	X27	Y27	Z27	X28	Y28	Z28	X29	Y29	Z29	X30	Y30	Z30	X31	Y31	Z31	X32	Y32	Z32	X33	Y33	Z33	

18	40.974642857143	878.059270040307	959.583494479303	304.853020989012	652.668572572948	1012.255071254557	442.388585147866	859.806483856793	1432.718343553775	271.390768806214	942.719584806006	1363.185758278137	443.572678292177	842.549321315186	1443.400917257536	606.314864931698	846.001270981380	1496.614883659021	420.651800499564	868.528469055157	944.889486201741	579.716416153224	936.730488694083	766.081849979142	555.918931313906	886.297446337328	647.687381537775	627.633847291355	974.146508851352	604.091477335525	549.136677301794	1004.345345713439	519.983300743929	566.811303278803	883.451237291249	735.249459780896	334.572789662752	770.480960765992	638.906077559974	271.374507815008	831.128646552299	547.794124416265	337.525830362864	817.324624159294	482.203667100041	348.081426206080	788.259719419983	415.562926950053	341.285296856419	693.864485251765	305.247533383071	291.459247228727	736.709312273485	193.608703635260	367.960574141059	985.895075401732	434.390669042837	576.200984128837	929.682897693519	322.567693086465	639.255515219390	997.045935299474	234.597147791635	588.629054440604	899.267466405063	48.568340431115	558.672495459623	1060.451381485197	121.696559288284	603.308068105541	980.810376502167	46.997152866075	634.899165133344	1184.012423566488	85.022800724838	635.616503071603	600.293668773968	40.303222955606	412.514738799792	676.304885496275	35.304724617129	334.413116442048	760.150010654625	95.494168938725	361.159439542878	888.379805454345	39.998205627312	338.297545969721	904.021501996702	1089.762051292846	135.479507913642	1135.565677625285	971.546880056617	138.640161895936	678.290757896279	1143.255384814715	713.190511674592	631.300013794782	887.654446077208	735.211149096162	
19	40.987857142857	878.448959819301	958.798630616230	306.595549305921	653.079833625098	1010.798816606229	443.910013541770	859.199507304498	1431.473705750368	272.976040328555	942.188743809893	1362.248279610985	445.229711385305	841.880012967037	1442.492931242256	607.859425591512	845.219990684872	1495.450672079249	422.149942646264	868.603678237647	943.233860008357	581.463391111328	935.322561352435	763.021490316773	558.217964199112	882.993889218792	644.774646698641	628.986965623530	970.963880267063	600.966572708265	550.720797524070	1000.692154158115	518.110440159235	567.449953275614	882.241193071667	734.269222530361	335.820250430574	768.476158737154	638.748242550875	272.170047058080	828.123579440857	547.081045991915	338.254694601853	813.715420267699	481.463327372732	348.597453409030	784.105303623402	415.088446119262	341.645779863936	688.767804406660	305.575217387530	291.578816301365	730.873182748488	193.485785575719	367.868722235637	984.237689396446	432.610501936417	576.826473726503	930.453440947774	319.323326541470	639.431469462322	1000.166575532838	233.024279008484	588.737829904276	906.631434417034	45.232401124866	558.219734663291	1066.538986616239	121.154466892366	603.266480328052	988.077639109634	45.012629896199	634.491037838830	1190.688631931318	86.424366444037	635.528357053784	593.616664201918	40.565820722251	412.293747488873	669.664331627820	35.336206466819	334.300869258246	753.537371126411	95.486831750142	361.022768719983	881.697109330224	39.912300194439	338.288649890808	903.795825758050	1088.641143325068	137.044755601974	1136.012475774085	971.973989838047	140.530379877759	678.104163006147	1142.095542535003	714.576443172491	631.960900265074	886.155892323169	735.638412151484	
20	41.001071428571	879.007012741069	958.028154209567	308.485202093539	653.659094797974	1009.211849904744	445.754373962486	858.424742218684	1430.174201461507	274.723342978688	941.631392651496	1361.326257943414	447.017284059031	841.186800955080	1441.523199860499	609.593596781615	844.346603313741	1494.246161131185	423.815445898788	868.913525679653	941.501752580633	583.343104323902	934.600461923597	760.206409815362	560.494809729344	880.467094565554	641.957270874596	630.146083920961	968.649766293130	598.150775469268	552.186426174366	997.779499452485	516.181748778943	567.996386145181	881.235575537626	733.252191000049	337.186858433462	766.728441865228	638.564526216047	273.116309394167	825.403820322553	546.352917930392	339.126281954357	810.358169642030	480.658269767940	349.317704304322	780.222192359398	414.552396285800	342.137256653859	683.864366448227	305.927219645876	291.789977121859	725.126212735273	193.343893992838	367.825782949679	982.679770898184	430.568485834339	577.284001254647	930.356127243155	316.341107724186	639.326134095663	1001.572156314667	231.224986771592	588.577933774345	910.581540709042	42.966868449196	557.526383868597	1069.862439887842	120.003166441876	602.882494249643	991.879938410733	43.359914092212	633.858238772813	1194.141583225825	85.970265159791	635.061444130510	586.938147962223	40.864647498904	412.045741123729	663.029248603320	35.384024101835	334.172925171880	746.926802366999	95.499821652431	360.883052269749	875.015481936928	39.818282539850	338.277175488131	903.202748449998	1087.370790171243	138.816817151596	1135.769053615695	971.527405906808	142.523647464503	678.593610896674	1140.449863146812	716.309040514380	634.187211651399	883.984570518913	736.281356649623	
21	41.014285714286	879.710435330354	957.279570786215	310.522265969594	654.406261533257	1007.526368206092	447.920605209887	857.509456555695	1428.839495468742	276.641919882737	941.066372357097	1360.436348723295	448.949009473144	840.481198675989	1440.509563421993	611.530078587106	843.404254427766	1493.023440614294	425.656616503775	869.461259818329	939.723630506741	585.351436834252	934.595766481775	757.691002096749	562.717612368271	878.759915312757	639.297970127668	631.112471762892	967.265549517428	595.709577660541	553.545332726230	995.674799447080	514.252489712154	568.455349645899	880.424595696814	732.194788197182	338.643860253706	765.211483284787	638.356986179170	274.218245624577	822.962785387831	545.607545552107	340.130846525568	807.260994700329	479.783497512613	350.231023351034	776.606977364843	413.950521861403	342.761229821237	679.143256681255	306.303499666348	292.109157863552	719.463446101889	193.180162817056	367.842033583146	981.340636886972	428.313686743834	577.597335189328	929.578510366582	313.604641271570	639.023265562513	1001.481969830722	229.166570553258	588.202374860562	911.372280467108	41.571534192545	556.699531928335	1070.677500853182	118.229347315230	602.201363834473	992.524144784014	41.926766969084	633.094111482741	1194.730422203492	83.763176055088	634.255319948170	580.260350259075	41.198600311069	411.781386039913	656.400248889468	35.449699419307	334.035464011893	740.321304169742	95.535179881302	360.744125749013	868.339239684002	39.714842501291	338.259810643391	902.227783671109	1085.959984530385	140.807688368013	1134.826642211307	970.201622659749	144.608894437267	679.704990768922	1138.382449069234	718.383512486239	637.931701963876	881.233018201847	737.153532762197	
